<?xml version="1.0" encoding="UTF-8"?>
<!DOCTYPE svg PUBLIC "-//W3C//DTD SVG 1.1//EN" "http://www.w3.org/Graphics/SVG/1.1/DTD/svg11.dtd">
<!-- Creator: CorelDRAW X8 -->
<svg xmlns="http://www.w3.org/2000/svg" xml:space="preserve" width="420mm" height="297mm" version="1.1" style="shape-rendering:geometricPrecision; text-rendering:geometricPrecision; image-rendering:optimizeQuality; fill-rule:evenodd; clip-rule:evenodd"
viewBox="0 0 42000 29700"
 xmlns:xlink="http://www.w3.org/1999/xlink">
 <defs>
  <style type="text/css">
   <![CDATA[
    .fil0 {fill:#59616A}
    .fil3 {fill:#5FDAB3}
    .fil2 {fill:#CCCCCC}
    .fil4 {fill:#FF9A52}
    .fil1 {fill:white}
    .fil6 {fill:#59616A;fill-rule:nonzero}
    .fil5 {fill:white;fill-rule:nonzero}
   ]]>
  </style>
 </defs>
 <g id="Camada_x0020_1">
  <metadata id="CorelCorpID_0Corel-Layer"/>
  <path class="fil0" d="M3707 14837c-371,332 -640,763 -776,1242 -55,-488 -33,-981 65,-1463l-200 -62 728 -382 382 727 -199 -62zm-412 1326c913,650 2159,556 2964,-223 806,-779 941,-2022 322,-2956l76 -244c55,-176 -22,-366 -184,-455 -161,-89 -363,-51 -482,90 -913,-650 -2159,-556 -2964,223 -806,779 -941,2021 -322,2955l-76 245c-55,176 22,366 184,454 161,89 363,52 482,-89zm2467 -1797l-383 -728 200 62c371,-332 640,-763 776,-1242 55,488 33,982 -65,1463l199 62 -727 383z"/>
  <path class="fil1" d="M2705 15553c-619,-934 -484,-2176 322,-2955 805,-779 2051,-873 2964,-223 119,-141 321,-179 482,-90 162,89 239,279 184,455l-76 244c619,934 484,2177 -322,2956 -805,779 -2051,873 -2964,223 -119,141 -321,178 -482,89 -162,-88 -239,-278 -184,-454l76 -245zm4295 -2626c124,-291 58,-627 -165,-850 -223,-224 -560,-289 -851,-166 -1061,-604 -2395,-424 -3259,440 -864,863 -1044,2198 -440,3259 -123,291 -57,627 166,851 223,223 560,288 850,165 1062,604 2396,424 3260,-439 864,-864 1043,-2198 439,-3260z"/>
  <path class="fil2" d="M2725 12351c864,-864 2198,-1044 3259,-440 291,-123 628,-58 851,166 223,223 289,559 165,850 604,1062 425,2396 -439,3260 -864,863 -2198,1043 -3260,439 -290,123 -627,58 -850,-165 -223,-224 -289,-560 -166,-851 -604,-1061 -424,-2396 440,-3259zm538 4694c1193,592 2630,357 3572,-584 941,-942 1177,-2380 584,-3572 91,-391 -26,-802 -310,-1086 -284,-284 -695,-402 -1086,-310 -1193,-593 -2630,-358 -3572,584 -942,941 -1177,2379 -584,3571 -91,392 26,802 310,1087 284,284 695,401 1086,310z"/>
  <path class="fil3" d="M2996 14616c-98,482 -120,975 -65,1463 136,-479 405,-910 776,-1242l199 62 -382 -727 -728 382 200 62z"/>
  <path class="fil4" d="M5379 13638l383 728 727 -383 -199 -62c98,-481 120,-975 65,-1463 -136,479 -405,910 -776,1242l-200 -62z"/>
  <path class="fil5" d="M3997 15470l177 0 0 167 -336 0c-12,0 -21,4 -30,12 -8,7 -12,17 -12,28 0,12 4,22 12,30 9,8 18,12 30,12l173 0c29,0 55,5 80,14 25,10 47,23 66,41 19,17 34,37 44,61 11,24 17,50 17,78 0,29 -6,57 -17,82 -10,25 -25,47 -44,66 -19,18 -41,33 -66,44 -25,11 -51,16 -80,16l-14 0 0 233 -140 0 0 -233 -226 0 0 -165 380 0c11,0 20,-4 28,-12 8,-9 13,-19 13,-31 0,-11 -5,-19 -13,-22 -8,-3 -17,-5 -28,-5l-173 0c-29,0 -56,-5 -81,-16 -25,-11 -47,-26 -65,-45 -19,-19 -33,-41 -44,-67 -11,-25 -17,-52 -17,-81 0,-28 6,-55 17,-80 11,-25 25,-47 44,-66 18,-19 40,-33 65,-44 25,-11 52,-17 81,-17l19 0 0 -206 140 0 0 206z"/>
  <path class="fil5" d="M2860 13377c16,-39 38,-74 65,-106 27,-32 58,-59 92,-82 35,-23 73,-41 113,-54 41,-13 83,-19 128,-19 52,0 102,8 150,26 49,18 93,44 132,78l-89 146c-25,-26 -54,-47 -87,-61 -34,-14 -69,-21 -106,-21 -41,0 -79,8 -114,25 -35,17 -65,40 -90,68l177 0 -32 147 -207 0c-1,5 -1,9 -1,13 0,5 0,9 0,14 0,5 0,10 0,15 0,5 0,10 1,15l195 0 -32 147 -96 0c24,28 54,50 88,66 34,15 71,23 111,23 37,0 72,-7 106,-21 33,-15 62,-35 87,-62l89 147c-39,33 -83,59 -132,77 -48,18 -98,27 -150,27 -44,0 -87,-6 -127,-19 -40,-13 -77,-30 -111,-53 -34,-23 -65,-50 -92,-81 -27,-32 -49,-66 -65,-104l-198 0 32 -147 128 0c-1,-5 -1,-10 -1,-15 0,-5 0,-10 0,-15l0 -27 -115 0 32 -147 119 0z"/>
  <path class="fil5" d="M6545 15155c0,35 -7,67 -20,98 -13,30 -31,57 -54,80 -23,23 -49,41 -80,54 -31,13 -63,20 -98,20l-373 0 0 -320 -97 0 0 -160 97 0 0 -108c0,-35 6,-67 20,-98 13,-30 31,-57 54,-80 23,-23 49,-41 80,-54 30,-13 63,-20 98,-20l70 0 0 168 -70 0c-12,0 -23,2 -33,7 -10,4 -19,10 -27,18 -7,7 -13,16 -18,26 -4,10 -6,21 -6,33l0 108 117 0 0 160 -117 0 0 152 205 0c12,0 22,-2 33,-7 10,-4 19,-10 26,-17 8,-8 14,-17 18,-27 4,-10 7,-21 7,-33l168 0z"/>
  <path class="fil5" d="M5193 12836c-27,-13 -52,-29 -73,-49 -21,-20 -38,-42 -53,-67 -14,-24 -24,-50 -31,-77 -7,-27 -11,-55 -11,-83l0 -252 168 0 0 252c0,23 5,45 13,65 9,21 21,39 36,54 16,15 34,27 54,36 21,9 42,13 65,13 23,0 45,-4 65,-13 21,-9 38,-21 54,-36 15,-15 27,-33 36,-54 8,-20 13,-42 13,-65l0 -252 168 0 0 252c0,28 -4,56 -12,85 -7,28 -18,54 -33,79 -14,25 -32,47 -53,67 -21,19 -44,35 -71,45l139 0 0 160 -222 0 0 152 -168 0 0 -152 -222 0 0 -160 138 0z"/>
  <path class="fil6" d="M10618 14941c-108,94 -230,165 -364,215 -135,50 -274,75 -419,75 -110,0 -217,-14 -320,-43 -102,-29 -198,-69 -288,-122 -89,-52 -171,-116 -245,-190 -74,-74 -137,-155 -190,-245 -52,-89 -93,-185 -122,-288 -29,-102 -43,-209 -43,-320 0,-110 14,-218 43,-320 29,-104 70,-200 122,-289 53,-90 116,-172 190,-246 74,-73 156,-137 245,-189 90,-53 186,-93 288,-122 103,-29 210,-44 320,-44 145,0 284,25 419,74 134,50 256,122 364,216l-247 407c-68,-74 -150,-130 -243,-170 -93,-39 -191,-59 -293,-59 -103,0 -199,19 -289,58 -91,40 -169,92 -237,159 -67,67 -120,146 -159,236 -40,91 -59,187 -59,289 0,103 19,198 59,288 39,89 92,167 159,235 68,67 146,120 237,160 90,39 186,58 289,58 102,0 200,-20 293,-59 93,-40 175,-97 243,-170l247 406zm1464 36c-36,33 -74,64 -114,92 -41,29 -84,54 -128,75 -45,21 -91,38 -138,51 -47,12 -95,19 -144,19 -107,0 -208,-20 -303,-58 -94,-37 -177,-92 -248,-161 -71,-70 -127,-156 -168,-256 -41,-101 -61,-213 -61,-338l0 -964 443 0 0 964c0,59 9,111 27,157 18,46 42,85 72,117 31,31 66,55 107,71 40,16 84,25 131,25 46,0 89,-11 129,-32 41,-22 77,-49 107,-84 31,-35 55,-74 72,-118 17,-44 26,-89 26,-136l0 -964 444 0 0 1744 -107 0 -147 -204zm1037 204l-444 0 0 -1744 107 0 147 207c72,-65 153,-115 244,-151 91,-35 186,-53 283,-53l393 0 0 443 -393 0c-46,0 -90,9 -131,26 -42,18 -78,41 -108,72 -30,31 -54,66 -72,107 -17,41 -26,85 -26,132l0 961zm1381 0l-444 0 0 -1744 107 0 146 207c72,-65 153,-115 244,-151 92,-35 186,-53 284,-53l392 0 0 443 -392 0c-47,0 -91,9 -132,26 -42,18 -77,41 -108,72 -30,31 -54,66 -71,107 -18,41 -26,85 -26,132l0 961zm1597 -427c17,6 34,10 52,11 17,1 34,2 52,2 43,0 85,-6 125,-17 40,-13 78,-30 113,-52 36,-22 67,-50 95,-81 27,-32 50,-68 67,-107l326 327c-41,59 -89,112 -142,158 -54,47 -112,86 -175,119 -62,32 -128,57 -196,74 -69,17 -140,26 -213,26 -123,0 -238,-23 -346,-69 -108,-45 -203,-109 -283,-190 -82,-82 -145,-179 -192,-291 -46,-112 -70,-236 -70,-371 0,-137 24,-263 70,-377 47,-114 110,-211 192,-292 80,-80 175,-143 283,-187 108,-45 223,-67 346,-67 73,0 144,9 213,26 70,18 136,43 198,75 62,33 121,73 175,120 54,47 102,100 143,159l-833 1004zm228 -916c-21,-8 -41,-13 -61,-15 -20,-2 -42,-3 -63,-3 -61,0 -118,11 -172,33 -53,22 -100,54 -140,95 -40,41 -71,91 -93,149 -23,59 -35,124 -35,196 0,17 1,35 3,56 2,20 4,42 8,63 4,21 8,41 14,61 5,19 12,37 21,52l518 -687zm1272 1343l-444 0 0 -1744 108 0 146 169c72,-65 153,-115 244,-150 90,-35 185,-53 284,-53 106,0 206,20 301,61 94,41 177,96 247,167 71,72 126,155 167,250 41,95 61,196 61,303l0 997 -444 0 0 -997c0,-45 -9,-89 -26,-129 -18,-41 -41,-76 -72,-107 -30,-30 -65,-54 -106,-71 -40,-18 -83,-27 -128,-27 -47,0 -91,9 -132,27 -42,17 -77,41 -108,71 -30,31 -54,66 -72,107 -17,40 -26,84 -26,129l0 997zm2954 -1397l-326 327c-16,-46 -38,-87 -66,-123 -29,-36 -60,-67 -96,-92 -35,-24 -73,-44 -114,-57 -41,-13 -84,-19 -128,-19 -60,0 -117,12 -171,37 -54,25 -100,60 -140,105 -40,45 -71,98 -94,161 -22,61 -34,130 -34,205 0,60 12,118 34,170 23,54 54,100 94,140 40,41 86,72 140,95 54,23 111,34 171,34 44,0 86,-6 126,-17 40,-13 78,-30 113,-52 35,-22 67,-50 95,-81 27,-32 50,-68 67,-107l326 327c-41,59 -89,112 -142,158 -54,47 -113,86 -175,119 -62,32 -128,57 -197,74 -69,17 -140,26 -213,26 -122,0 -237,-24 -345,-70 -109,-46 -203,-109 -284,-189 -80,-81 -144,-175 -191,-282 -47,-107 -70,-222 -70,-345 0,-134 23,-259 70,-375 47,-116 111,-217 191,-303 81,-87 175,-155 284,-205 108,-50 223,-75 345,-75 73,0 145,10 215,28 70,18 137,45 200,81 63,35 122,78 176,129 54,51 100,110 139,176zm637 2061l0 -447 247 3c44,0 85,-7 125,-22 41,-14 78,-33 112,-58 35,-25 65,-55 91,-89 26,-34 47,-71 63,-111 -49,20 -98,41 -149,62 -50,20 -101,31 -152,31 -107,0 -209,-20 -303,-58 -95,-37 -177,-92 -248,-161 -72,-70 -127,-156 -168,-256 -41,-101 -61,-213 -61,-338l0 -964 443 0 0 964c0,62 9,116 27,162 17,46 42,85 72,115 31,32 66,54 107,70 40,15 84,23 131,23 45,0 89,-11 129,-32 41,-22 76,-49 107,-84 31,-35 54,-74 72,-118 17,-44 26,-89 26,-136l0 -964 447 0 0 1524c-1,123 -25,238 -71,345 -47,108 -111,202 -192,282 -80,80 -175,144 -282,190 -108,47 -223,70 -345,70l-228 -3zm4302 -904c-109,94 -231,165 -365,215 -135,50 -274,75 -419,75 -110,0 -217,-14 -320,-43 -102,-29 -198,-69 -287,-122 -90,-52 -172,-116 -246,-190 -73,-74 -137,-155 -190,-245 -52,-89 -92,-185 -121,-288 -29,-102 -44,-209 -44,-320 0,-110 15,-218 44,-320 29,-104 69,-200 121,-289 53,-90 117,-172 190,-246 74,-73 156,-137 246,-189 89,-53 185,-93 287,-122 103,-29 210,-44 320,-44 145,0 284,25 419,74 134,50 256,122 365,216l-248 407c-68,-74 -149,-130 -243,-170 -93,-39 -190,-59 -293,-59 -103,0 -199,19 -289,58 -91,40 -169,92 -236,159 -67,67 -121,146 -160,236 -39,91 -59,187 -59,289 0,103 20,198 59,288 39,89 93,167 160,235 67,67 145,120 236,160 90,39 186,58 289,58 103,0 200,-20 293,-59 94,-40 175,-97 243,-170l248 406zm1848 -648c0,131 -23,252 -70,364 -47,113 -110,210 -191,292 -80,82 -174,146 -282,194 -108,47 -224,71 -348,71 -122,0 -238,-24 -346,-71 -108,-48 -202,-112 -283,-194 -81,-82 -144,-179 -191,-292 -47,-112 -70,-233 -70,-364 0,-132 23,-255 70,-368 47,-112 110,-210 191,-292 81,-82 175,-146 283,-193 108,-46 224,-70 346,-70 124,0 240,22 348,66 108,44 202,107 282,188 81,80 144,178 191,291 47,113 70,239 70,378zm-448 0c0,-71 -12,-136 -35,-194 -23,-58 -55,-108 -95,-150 -40,-42 -87,-74 -141,-96 -54,-22 -111,-33 -172,-33 -60,0 -118,11 -172,33 -53,22 -100,54 -140,96 -39,42 -70,92 -93,150 -23,58 -34,123 -34,194 0,68 11,130 34,188 23,57 54,107 93,150 40,42 87,75 140,100 54,24 112,36 172,36 61,0 118,-11 172,-34 54,-23 101,-55 141,-96 40,-41 72,-91 95,-150 23,-59 35,-123 35,-194zm1138 888l-444 0 0 -1744 107 0 147 169c72,-65 153,-115 244,-150 90,-35 185,-53 284,-53 106,0 206,20 301,61 94,41 177,96 247,167 71,72 126,155 167,250 41,95 61,196 61,303l0 997 -444 0 0 -997c0,-45 -9,-89 -26,-129 -18,-41 -41,-76 -72,-107 -30,-30 -65,-54 -106,-71 -40,-18 -83,-27 -128,-27 -47,0 -91,9 -132,27 -42,17 -77,41 -108,71 -30,31 -54,66 -72,107 -17,40 -26,84 -26,129l0 997zm1855 0l-664 -1744 506 0 381 1088 379 -1088 508 0 -664 1744 -446 0zm1923 -427c17,6 34,10 52,11 17,1 34,2 52,2 43,0 85,-6 125,-17 40,-13 78,-30 113,-52 36,-22 67,-50 94,-81 28,-32 51,-68 68,-107l326 327c-41,59 -89,112 -142,158 -54,47 -113,86 -175,119 -62,32 -128,57 -197,74 -68,17 -140,26 -212,26 -123,0 -238,-23 -346,-69 -108,-45 -203,-109 -284,-190 -81,-82 -144,-179 -191,-291 -46,-112 -70,-236 -70,-371 0,-137 24,-263 70,-377 47,-114 110,-211 191,-292 81,-80 176,-143 284,-187 108,-45 223,-67 346,-67 72,0 144,9 213,26 69,18 136,43 198,75 62,33 120,73 175,120 54,47 102,100 143,159l-833 1004zm228 -916c-21,-8 -42,-13 -62,-15 -20,-2 -41,-3 -62,-3 -61,0 -118,11 -172,33 -53,22 -100,54 -140,95 -40,41 -71,91 -94,149 -22,59 -34,124 -34,196 0,17 1,35 3,56 1,20 4,42 8,63 3,21 8,41 13,61 6,19 13,37 22,52l518 -687zm1272 1343l-444 0 0 -1744 107 0 147 207c72,-65 153,-115 244,-151 91,-35 186,-53 284,-53l392 0 0 443 -392 0c-47,0 -91,9 -132,26 -42,18 -77,41 -108,72 -30,31 -54,66 -72,107 -17,41 -26,85 -26,132l0 961zm1811 0c-107,0 -209,-21 -303,-61 -95,-41 -177,-97 -248,-168 -72,-71 -127,-154 -168,-248 -41,-94 -61,-196 -61,-303l0 -518 -217 0 0 -443 217 0 0 -697 443 0 0 697 674 0 0 443 -674 0 0 518c0,47 8,90 26,131 17,41 41,76 71,106 31,31 66,55 108,73 41,18 85,27 132,27l337 0 0 443 -337 0zm1280 -427c17,6 34,10 52,11 17,1 34,2 52,2 43,0 85,-6 125,-17 40,-13 78,-30 113,-52 36,-22 67,-50 95,-81 27,-32 50,-68 67,-107l326 327c-41,59 -89,112 -142,158 -54,47 -112,86 -175,119 -62,32 -128,57 -196,74 -69,17 -141,26 -213,26 -123,0 -238,-23 -346,-69 -108,-45 -203,-109 -283,-190 -82,-82 -145,-179 -192,-291 -46,-112 -70,-236 -70,-371 0,-137 24,-263 70,-377 47,-114 110,-211 192,-292 80,-80 175,-143 283,-187 108,-45 223,-67 346,-67 72,0 144,9 213,26 70,18 136,43 198,75 62,33 121,73 175,120 54,47 102,100 143,159l-833 1004zm228 -916c-21,-8 -42,-13 -62,-15 -20,-2 -41,-3 -62,-3 -61,0 -118,11 -172,33 -53,22 -100,54 -140,95 -40,41 -71,91 -93,149 -23,59 -35,124 -35,196 0,17 1,35 3,56 2,20 4,42 8,63 4,21 8,41 14,61 5,19 12,37 21,52l518 -687zm1272 1343l-444 0 0 -1744 107 0 147 207c72,-65 153,-115 244,-151 91,-35 186,-53 284,-53l392 0 0 443 -392 0c-47,0 -91,9 -132,26 -42,18 -77,41 -108,72 -30,31 -54,66 -72,107 -17,41 -26,85 -26,132l0 961z"/>
 </g>
</svg>
