<?xml version="1.0" encoding="UTF-8"?>
<!DOCTYPE svg PUBLIC "-//W3C//DTD SVG 1.1//EN" "http://www.w3.org/Graphics/SVG/1.1/DTD/svg11.dtd">
<!-- Creator: CorelDRAW X8 -->
<svg xmlns="http://www.w3.org/2000/svg" xml:space="preserve" width="297mm" height="420mm" version="1.1" style="shape-rendering:geometricPrecision; text-rendering:geometricPrecision; image-rendering:optimizeQuality; fill-rule:evenodd; clip-rule:evenodd"
viewBox="0 0 29700 42000"
 xmlns:xlink="http://www.w3.org/1999/xlink">
 <defs>
  <style type="text/css">
   <![CDATA[
    .fil0 {fill:#59616A}
    .fil3 {fill:#5FDAB3}
    .fil2 {fill:#CCCCCC}
    .fil4 {fill:#FF9A52}
    .fil1 {fill:white}
    .fil5 {fill:white;fill-rule:nonzero}
   ]]>
  </style>
 </defs>
 <g id="Camada_x0020_1">
  <metadata id="CorelCorpID_0Corel-Layer"/>
  <path class="fil0" d="M10775 26648c-2259,2020 -3896,4641 -4720,7557 -336,-2969 -203,-5973 395,-8901l-1215 -377 4427 -2328 2328 4427 -1215 -378zm-2507 8066c5555,3953 13138,3383 18039,-1357 4900,-4740 5723,-12301 1956,-17984l463 -1488c333,-1071 -135,-2228 -1118,-2767 -983,-539 -2210,-312 -2934,545 -5554,-3953 -13138,-3383 -18038,1357 -4901,4740 -5723,12301 -1957,17983l-463 1489c-332,1071 135,2228 1118,2767 983,539 2210,311 2934,-545zm15012 -10936l-2328 -4427 1215 377c2259,-2019 3896,-4640 4720,-7556 337,2969 203,5973 -395,8901l1215 377 -4427 2328z"/>
  <path class="fil1" d="M4679 31003c-3766,-5682 -2944,-13243 1957,-17983 4900,-4740 12484,-5310 18038,-1357 724,-857 1951,-1084 2934,-545 983,539 1451,1696 1118,2767l-463 1488c3767,5683 2944,13244 -1956,17984 -4901,4740 -12484,5310 -18039,1357 -724,856 -1951,1084 -2934,545 -983,-539 -1450,-1696 -1118,-2767l463 -1489zm26137 -15977c750,-1769 352,-3817 -1007,-5175 -1359,-1359 -3406,-1757 -5175,-1007 -6459,-3676 -14578,-2581 -19833,2674 -5255,5255 -6350,13374 -2675,19833 -750,1769 -351,3816 1007,5175 1359,1359 3406,1757 5176,1007 6459,3676 14578,2581 19833,-2674 5255,-5255 6349,-13374 2674,-19833z"/>
  <path class="fil2" d="M4801 11518c5255,-5255 13374,-6350 19833,-2674 1769,-750 3816,-352 5175,1007 1359,1358 1757,3406 1007,5175 3675,6459 2581,14578 -2674,19833 -5255,5255 -13374,6350 -19833,2674 -1770,750 -3817,352 -5176,-1007 -1358,-1359 -1757,-3406 -1007,-5175 -3675,-6459 -2580,-14578 2675,-19833zm3275 28562c7256,3606 16004,2175 21733,-3554 5729,-5729 7159,-14477 3553,-21732 557,-2382 -157,-4881 -1886,-6610 -1729,-1730 -4229,-2443 -6610,-1887 -7256,-3606 -16003,-2175 -21733,3554 -5729,5729 -7159,14477 -3553,21732 -556,2381 157,4881 1886,6610 1729,1729 4229,2443 6610,1887z"/>
  <path class="fil3" d="M6450 25304c-598,2928 -731,5932 -395,8901 824,-2916 2461,-5537 4720,-7557l1215 378 -2328 -4427 -4427 2328 1215 377z"/>
  <path class="fil4" d="M20952 19351l2328 4427 4427 -2328 -1215 -377c598,-2928 732,-5932 395,-8901 -824,2916 -2461,5537 -4720,7556l-1215 -377z"/>
  <path class="fil5" d="M12539 30501l1082 0 0 1011 -2048 0c-71,0 -131,26 -181,73 -49,47 -74,106 -74,174 0,71 25,131 74,180 50,49 110,74 181,74l1055 0c172,0 334,28 488,87 151,60 285,140 399,246 114,104 203,229 270,374 66,145 99,303 99,477 0,175 -33,341 -99,494 -67,154 -156,287 -270,401 -114,112 -248,202 -399,268 -154,66 -316,99 -488,99l-89 0 0 1420 -850 0 0 -1420 -1374 0 0 -1003 2313 0c64,0 121,-26 170,-76 49,-52 74,-112 74,-183 0,-71 -25,-117 -74,-138 -49,-19 -106,-30 -170,-30l-1055 0c-176,0 -341,-33 -492,-99 -153,-66 -286,-156 -398,-273 -114,-115 -202,-250 -268,-404 -67,-155 -100,-319 -100,-494 0,-174 33,-336 100,-488 66,-153 154,-287 268,-401 112,-114 245,-204 398,-270 151,-66 316,-99 492,-99l116 0 0 -1254 850 0 0 1254z"/>
  <path class="fil5" d="M5620 17761c102,-234 235,-446 399,-642 164,-195 352,-361 561,-502 210,-140 439,-250 686,-328 247,-79 506,-117 777,-117 316,0 621,54 917,161 296,108 563,267 800,473l-541 890c-150,-161 -327,-285 -533,-372 -206,-86 -420,-130 -643,-130 -250,0 -482,52 -695,155 -214,103 -395,240 -546,412l1080 0 -196 897 -1261 0c-4,27 -7,54 -7,81 0,26 0,53 0,80 0,33 0,64 0,95 0,29 3,59 7,90l1190 0 -200 895 -583 0c149,170 328,304 536,399 208,94 433,142 675,142 223,0 437,-44 643,-130 206,-87 383,-211 533,-372l541 890c-237,204 -504,361 -800,470 -296,110 -601,165 -917,165 -269,0 -526,-39 -770,-116 -244,-78 -471,-185 -679,-323 -208,-138 -394,-302 -557,-493 -164,-192 -297,-402 -398,-632l-1206 0 196 -895 781 0c-5,-31 -7,-61 -7,-90 0,-31 0,-62 0,-95l0 -161 -702 0 199 -897 720 0z"/>
  <path class="fil5" d="M28043 28582c0,211 -41,410 -120,596 -80,185 -189,346 -328,485 -139,140 -302,249 -488,330 -187,81 -385,121 -597,121l-2269 0 0 -1949 -592 0 0 -968 592 0 0 -659c0,-212 40,-410 121,-596 81,-185 190,-347 329,-487 140,-138 302,-248 487,-329 186,-80 384,-120 595,-120l431 0 0 1022 -431 0c-71,0 -138,12 -200,39 -61,26 -116,62 -162,108 -46,47 -83,101 -108,162 -27,62 -39,129 -39,201l0 659 715 0 0 968 -715 0 0 926 1246 0c72,0 138,-13 200,-38 62,-27 115,-63 161,-109 47,-46 83,-101 110,-163 25,-60 39,-127 39,-199l1023 0z"/>
  <path class="fil5" d="M19820 14473c-169,-80 -318,-181 -445,-303 -129,-120 -235,-255 -321,-402 -85,-147 -150,-304 -192,-470 -43,-166 -65,-335 -65,-506l0 -1532 1023 0 0 1532c0,140 27,273 80,397 54,125 127,233 219,326 92,92 202,166 326,219 125,53 258,80 398,80 139,0 272,-27 395,-80 124,-53 232,-127 324,-219 93,-93 166,-201 219,-326 54,-124 81,-257 81,-397l0 -1532 1022 0 0 1532c0,171 -23,342 -70,515 -46,172 -113,333 -201,484 -87,151 -196,286 -322,405 -128,119 -273,211 -437,277l848 0 0 969 -1350 0 0 927 -1023 0 0 -927 -1349 0 0 -969 840 0z"/>
 </g>
</svg>
