<?xml version="1.0" encoding="UTF-8"?>
<!DOCTYPE svg PUBLIC "-//W3C//DTD SVG 1.1//EN" "http://www.w3.org/Graphics/SVG/1.1/DTD/svg11.dtd">
<!-- Creator: CorelDRAW X8 -->
<svg xmlns="http://www.w3.org/2000/svg" xml:space="preserve" width="297mm" height="420mm" version="1.1" style="shape-rendering:geometricPrecision; text-rendering:geometricPrecision; image-rendering:optimizeQuality; fill-rule:evenodd; clip-rule:evenodd"
viewBox="0 0 29700 42000"
 xmlns:xlink="http://www.w3.org/1999/xlink">
 <defs>
  <style type="text/css">
   <![CDATA[
    .fil0 {fill:#59616A}
    .fil3 {fill:#5FDAB3}
    .fil2 {fill:#CCCCCC}
    .fil4 {fill:#FF9A52}
    .fil1 {fill:white}
    .fil6 {fill:#59616A;fill-rule:nonzero}
    .fil5 {fill:white;fill-rule:nonzero}
   ]]>
  </style>
 </defs>
 <g id="Camada_x0020_1">
  <metadata id="CorelCorpID_0Corel-Layer"/>
  <path class="fil0" d="M11473 20740c-1352,1209 -2331,2777 -2825,4522 -201,-1777 -121,-3574 237,-5327l-727 -226 2649 -1393 1394 2650 -728 -226zm-1500 4827c3324,2366 7864,2025 10796,-812 2933,-2837 3426,-7362 1172,-10764l276 -890c200,-641 -80,-1334 -669,-1657 -588,-322 -1322,-186 -1756,326 -3324,-2366 -7863,-2024 -10796,813 -2933,2837 -3425,7362 -1171,10763l-277 891c-199,641 80,1334 669,1656 588,323 1323,187 1756,-326zm8985 -6545l-1393 -2650 727 226c1352,-1209 2332,-2777 2825,-4523 201,1778 121,3575 -237,5328l728 226 -2650 1393z"/>
  <path class="fil1" d="M7825 23346c-2254,-3401 -1762,-7926 1171,-10763 2933,-2837 7472,-3179 10796,-813 434,-512 1168,-648 1756,-326 589,323 869,1016 669,1657l-276 890c2254,3402 1761,7927 -1172,10764 -2932,2837 -7472,3178 -10796,812 -433,513 -1168,649 -1756,326 -589,-322 -868,-1015 -669,-1656l277 -891zm15643 -9563c449,-1058 211,-2284 -602,-3097 -814,-813 -2039,-1052 -3098,-603 -3866,-2200 -8725,-1544 -11870,1601 -3146,3145 -3801,8004 -1601,11870 -449,1059 -211,2285 603,3098 813,813 2038,1052 3097,603 3866,2199 8725,1544 11871,-1601 3145,-3145 3800,-8005 1600,-11871z"/>
  <path class="fil2" d="M7898 11684c3145,-3145 8004,-3801 11870,-1601 1059,-449 2284,-210 3098,603 813,813 1051,2039 602,3097 2200,3866 1545,8726 -1600,11871 -3146,3145 -8005,3800 -11871,1601 -1059,449 -2284,210 -3097,-603 -814,-813 -1052,-2039 -603,-3098 -2200,-3866 -1545,-8725 1601,-11870zm1960 17095c4343,2158 9579,1302 13008,-2127 3429,-3429 4285,-8665 2127,-13008 332,-1425 -95,-2921 -1129,-3956 -1035,-1035 -2532,-1462 -3957,-1129 -4343,-2158 -9578,-1302 -13007,2127 -3429,3429 -4285,8665 -2127,13007 -333,1426 94,2922 1129,3957 1035,1035 2531,1462 3956,1129z"/>
  <path class="fil3" d="M8885 19935c-358,1753 -438,3550 -237,5327 494,-1745 1473,-3313 2825,-4522l728 226 -1394 -2650 -2649 1393 727 226z"/>
  <path class="fil4" d="M17565 16372l1393 2650 2650 -1393 -728 -226c358,-1753 438,-3550 237,-5328 -493,1746 -1473,3314 -2825,4523l-727 -226z"/>
  <path class="fil5" d="M12529 23046l648 0 0 605 -1226 0c-42,0 -78,15 -108,44 -30,28 -45,63 -45,103 0,43 15,79 45,108 30,29 66,45 108,45l631 0c103,0 201,17 292,52 91,35 171,84 239,147 68,62 122,137 162,224 39,87 59,181 59,285 0,105 -20,204 -59,296 -40,92 -94,172 -162,240 -68,67 -148,121 -239,160 -91,40 -189,60 -292,60l-53 0 0 849 -509 0 0 -849 -822 0 0 -601 1384 0c39,0 73,-15 102,-45 30,-31 45,-67 45,-110 0,-42 -15,-70 -45,-82 -29,-11 -63,-18 -102,-18l-631 0c-106,0 -204,-20 -295,-60 -91,-39 -171,-93 -238,-163 -68,-69 -121,-149 -160,-242 -40,-92 -60,-191 -60,-296 0,-103 20,-201 60,-291 39,-92 92,-172 160,-240 67,-68 147,-122 238,-162 91,-40 189,-59 295,-59l69 0 0 -751 509 0 0 751z"/>
  <path class="fil5" d="M8388 15420c61,-139 141,-267 239,-384 98,-116 210,-216 335,-301 126,-83 263,-149 411,-195 148,-48 303,-71 465,-71 189,0 372,33 549,97 177,65 337,159 479,283l-324 533c-90,-97 -196,-171 -319,-223 -123,-52 -251,-78 -385,-78 -149,0 -288,32 -416,93 -128,62 -236,144 -326,246l646 0 -117 538 -755 0c-3,16 -4,32 -4,48 0,16 0,32 0,48 0,19 0,38 0,56 0,18 1,36 4,54l712 0 -120 536 -349 0c90,102 197,182 321,239 125,56 259,85 404,85 134,0 262,-26 385,-78 123,-52 229,-126 319,-223l324 533c-142,122 -302,216 -479,282 -177,65 -360,98 -549,98 -161,0 -314,-23 -461,-69 -146,-47 -281,-111 -406,-194 -124,-82 -236,-180 -333,-295 -98,-115 -179,-241 -239,-378l-721 0 117 -536 467 0c-3,-18 -4,-36 -4,-54 0,-18 0,-37 0,-56l0 -96 -420 0 119 -538 431 0z"/>
  <path class="fil5" d="M21808 21897c0,127 -24,245 -71,357 -48,110 -113,207 -196,290 -83,84 -181,149 -292,197 -112,49 -231,73 -358,73l-1358 0 0 -1167 -354 0 0 -579 354 0 0 -394c0,-127 24,-246 72,-357 49,-111 115,-207 197,-291 84,-83 181,-149 292,-197 111,-48 230,-72 356,-72l258 0 0 612 -258 0c-43,0 -83,7 -120,23 -36,15 -69,37 -97,65 -27,27 -49,60 -64,96 -16,38 -24,78 -24,121l0 394 428 0 0 579 -428 0 0 555 746 0c43,0 83,-8 120,-23 37,-16 69,-37 97,-65 27,-28 49,-60 65,-98 15,-36 23,-76 23,-119l612 0z"/>
  <path class="fil5" d="M16887 13452c-101,-48 -190,-108 -266,-181 -78,-72 -141,-153 -193,-241 -51,-88 -89,-182 -115,-281 -25,-99 -38,-200 -38,-302l0 -917 612 0 0 917c0,83 16,163 48,237 32,75 76,140 131,195 55,55 121,100 195,131 75,32 154,48 238,48 84,0 163,-16 237,-48 74,-31 139,-76 194,-131 55,-55 99,-120 131,-195 32,-74 48,-154 48,-237l0 -917 612 0 0 917c0,102 -14,204 -42,307 -28,104 -68,200 -120,290 -53,90 -117,171 -193,243 -77,71 -163,126 -261,165l507 0 0 581 -808 0 0 554 -612 0 0 -554 -808 0 0 -581 503 0z"/>
  <path class="fil6" d="M4286 33033c-95,82 -202,145 -321,189 -118,44 -241,66 -368,66 -98,0 -191,-12 -282,-38 -90,-25 -175,-61 -253,-108 -79,-46 -151,-101 -216,-166 -65,-65 -121,-137 -168,-216 -46,-79 -81,-164 -107,-254 -25,-90 -38,-184 -38,-281 0,-98 13,-192 38,-283 26,-91 61,-175 107,-254 47,-79 103,-151 168,-216 65,-65 137,-121 216,-167 78,-46 163,-82 253,-107 91,-26 184,-39 282,-39 127,0 250,22 368,66 119,43 226,107 321,190l-218 358c-60,-65 -131,-115 -213,-150 -83,-34 -168,-52 -258,-52 -91,0 -176,17 -255,51 -80,35 -149,82 -208,140 -59,59 -106,128 -140,208 -35,80 -52,165 -52,255 0,90 17,174 52,253 34,78 81,147 140,206 59,60 128,107 208,141 79,35 164,52 255,52 90,0 175,-18 258,-53 82,-34 153,-84 213,-149l218 358zm1289 32c-31,28 -65,55 -101,80 -36,26 -73,48 -112,66 -40,19 -80,34 -122,45 -41,11 -83,17 -126,17 -95,0 -184,-18 -267,-51 -83,-33 -156,-81 -219,-142 -62,-62 -111,-137 -147,-225 -36,-89 -54,-188 -54,-298l0 -849 390 0 0 849c0,52 8,98 24,138 15,41 37,75 63,103 27,27 58,48 94,63 36,14 74,22 116,22 40,0 78,-10 114,-28 35,-19 67,-44 93,-74 27,-31 48,-66 64,-104 15,-39 23,-79 23,-120l0 -849 390 0 0 1536 -94 0 -129 -179zm913 179l-391 0 0 -1536 94 0 130 182c63,-57 134,-101 214,-132 81,-31 164,-47 250,-47l345 0 0 390 -345 0c-41,0 -80,8 -116,23 -37,15 -68,36 -95,63 -26,27 -48,59 -63,95 -15,36 -23,75 -23,116l0 846zm1215 0l-391 0 0 -1536 95 0 129 182c63,-57 134,-101 215,-132 80,-31 163,-47 249,-47l346 0 0 390 -346 0c-41,0 -80,8 -116,23 -37,15 -68,36 -95,63 -26,27 -47,59 -63,95 -15,36 -23,75 -23,116l0 846zm1406 -376c15,5 31,8 46,9 15,2 31,3 46,3 38,0 75,-6 110,-16 36,-11 69,-26 100,-45 31,-20 59,-44 83,-72 24,-28 44,-60 60,-94l286 288c-36,52 -78,98 -125,139 -47,41 -99,76 -154,105 -54,28 -112,50 -173,65 -61,15 -123,23 -187,23 -108,0 -210,-20 -305,-61 -95,-40 -178,-96 -249,-167 -72,-72 -127,-157 -168,-256 -41,-99 -62,-208 -62,-327 0,-121 21,-232 62,-332 41,-100 96,-186 168,-257 71,-70 154,-125 249,-165 95,-39 197,-58 305,-58 64,0 126,8 188,23 61,15 119,37 174,66 55,28 106,63 154,105 48,42 90,88 126,140l-734 884zm201 -807c-18,-7 -36,-11 -54,-13 -18,-2 -36,-2 -55,-2 -54,0 -104,9 -151,29 -47,19 -88,47 -124,84 -34,36 -62,80 -82,131 -20,51 -30,108 -30,172 0,15 1,31 2,49 2,18 4,37 7,56 3,18 7,36 12,53 5,18 12,33 19,46l456 -605zm1120 1183l-391 0 0 -1536 95 0 129 150c63,-58 134,-102 214,-133 80,-31 163,-46 250,-46 94,0 182,17 265,53 84,36 156,85 218,148 62,62 111,136 147,219 36,84 54,173 54,267l0 878 -391 0 0 -878c0,-40 -8,-78 -23,-114 -16,-35 -36,-67 -63,-93 -27,-27 -58,-48 -94,-64 -35,-15 -73,-23 -113,-23 -41,0 -80,8 -116,23 -36,16 -68,37 -95,64 -26,26 -47,58 -63,93 -15,36 -23,74 -23,114l0 878zm2601 -1230l-287 288c-14,-40 -34,-76 -59,-108 -25,-32 -53,-59 -84,-81 -31,-22 -64,-39 -101,-50 -36,-12 -73,-17 -112,-17 -53,0 -103,10 -151,32 -47,22 -88,53 -123,93 -35,39 -62,86 -82,141 -20,54 -31,115 -31,181 0,53 11,103 31,150 20,47 47,88 82,123 35,36 76,63 123,83 48,20 98,31 151,31 39,0 76,-6 111,-16 35,-11 68,-26 100,-45 30,-20 58,-44 83,-72 24,-28 44,-60 59,-94l287 288c-36,52 -79,98 -126,139 -47,41 -98,76 -153,105 -55,28 -113,50 -173,65 -61,15 -124,23 -188,23 -107,0 -209,-21 -304,-62 -95,-40 -178,-96 -250,-166 -71,-71 -127,-154 -168,-248 -41,-95 -62,-196 -62,-304 0,-118 21,-228 62,-330 41,-102 97,-191 168,-267 72,-77 155,-136 250,-180 95,-44 197,-66 304,-66 64,0 127,8 189,24 62,16 120,40 176,71 56,31 108,69 155,114 47,45 88,96 123,155zm560 1814l0 -393 218 2c38,0 75,-6 110,-19 36,-12 69,-29 99,-51 30,-22 56,-48 79,-78 23,-30 42,-63 56,-98 -43,18 -87,36 -131,54 -45,18 -89,28 -134,28 -95,0 -184,-18 -267,-51 -83,-33 -156,-81 -218,-142 -63,-62 -112,-137 -148,-225 -36,-89 -54,-188 -54,-298l0 -849 390 0 0 849c0,55 8,102 24,143 15,40 37,74 63,101 27,28 59,48 94,62 36,13 75,20 116,20 40,0 78,-10 114,-28 36,-19 67,-44 94,-74 27,-31 48,-66 63,-104 15,-39 23,-79 23,-120l0 -849 394 0 0 1342c-1,108 -22,209 -63,304 -41,95 -97,177 -169,248 -71,71 -154,127 -248,168 -95,41 -196,61 -304,61l-201 -3zm3787 -795c-95,82 -202,145 -321,189 -118,44 -241,66 -368,66 -98,0 -191,-12 -282,-38 -90,-25 -175,-61 -253,-108 -79,-46 -151,-101 -216,-166 -65,-65 -121,-137 -167,-216 -46,-79 -82,-164 -108,-254 -25,-90 -38,-184 -38,-281 0,-98 13,-192 38,-283 26,-91 62,-175 108,-254 46,-79 102,-151 167,-216 65,-65 137,-121 216,-167 78,-46 163,-82 253,-107 91,-26 184,-39 282,-39 127,0 250,22 368,66 119,43 226,107 321,190l-218 358c-60,-65 -131,-115 -213,-150 -83,-34 -168,-52 -258,-52 -91,0 -176,17 -255,51 -80,35 -149,82 -208,140 -59,59 -106,128 -140,208 -35,80 -52,165 -52,255 0,90 17,174 52,253 34,78 81,147 140,206 59,60 128,107 208,141 79,35 164,52 255,52 90,0 175,-18 258,-53 82,-34 153,-84 213,-149l218 358zm1627 -571c0,115 -20,222 -61,321 -41,99 -97,184 -168,256 -70,73 -154,129 -249,171 -94,42 -197,63 -306,63 -107,0 -209,-21 -304,-63 -96,-42 -178,-98 -250,-171 -71,-72 -127,-157 -168,-256 -41,-99 -62,-206 -62,-321 0,-116 21,-224 62,-324 41,-99 97,-184 168,-257 72,-72 154,-129 250,-170 95,-41 197,-61 304,-61 109,0 212,19 306,58 95,39 179,93 249,165 71,71 127,156 168,256 41,100 61,211 61,333zm-394 0c0,-63 -10,-120 -31,-171 -20,-51 -48,-95 -83,-131 -36,-38 -77,-66 -125,-85 -47,-20 -97,-29 -151,-29 -53,0 -104,9 -151,29 -47,19 -88,47 -123,85 -35,36 -62,80 -82,131 -21,51 -31,108 -31,171 0,60 10,115 31,165 20,51 47,95 82,132 35,38 76,67 123,88 47,22 98,33 151,33 54,0 104,-11 151,-31 48,-20 89,-48 125,-84 35,-36 63,-81 83,-132 21,-52 31,-109 31,-171zm1002 782l-391 0 0 -1536 95 0 129 150c63,-58 134,-102 214,-133 80,-31 163,-46 250,-46 94,0 182,17 265,53 83,36 156,85 218,148 62,62 111,136 147,219 36,84 54,173 54,267l0 878 -391 0 0 -878c0,-40 -8,-78 -23,-114 -16,-35 -37,-67 -63,-93 -27,-27 -58,-48 -94,-64 -35,-15 -73,-23 -113,-23 -41,0 -80,8 -116,23 -37,16 -68,37 -95,64 -26,26 -47,58 -63,93 -15,36 -23,74 -23,114l0 878zm1633 0l-585 -1536 446 0 335 958 334 -958 447 0 -584 1536 -393 0zm1693 -376c15,5 30,8 46,9 15,2 30,3 45,3 38,0 75,-6 111,-16 35,-11 68,-26 99,-45 31,-20 59,-44 83,-72 25,-28 45,-60 60,-94l287 288c-37,52 -79,98 -126,139 -47,41 -99,76 -153,105 -55,28 -113,50 -174,65 -60,15 -123,23 -187,23 -108,0 -209,-20 -304,-61 -96,-40 -179,-96 -250,-167 -71,-72 -127,-157 -168,-256 -41,-99 -62,-208 -62,-327 0,-121 21,-232 62,-332 41,-100 97,-186 168,-257 71,-70 154,-125 250,-165 95,-39 196,-58 304,-58 64,0 127,8 188,23 61,15 119,37 174,66 55,28 106,63 154,105 48,42 90,88 127,140l-734 884zm200 -807c-18,-7 -36,-11 -54,-13 -17,-2 -36,-2 -55,-2 -53,0 -104,9 -151,29 -47,19 -88,47 -123,84 -35,36 -63,80 -83,131 -20,51 -30,108 -30,172 0,15 1,31 3,49 1,18 3,37 6,56 4,18 8,36 13,53 5,18 11,33 18,46l456 -605zm1121 1183l-391 0 0 -1536 94 0 129 182c63,-57 135,-101 215,-132 80,-31 163,-47 250,-47l345 0 0 390 -345 0c-42,0 -80,8 -116,23 -37,15 -68,36 -95,63 -27,27 -48,59 -63,95 -16,36 -23,75 -23,116l0 846zm1594 0c-95,0 -184,-18 -267,-54 -83,-36 -156,-85 -219,-148 -62,-62 -111,-135 -147,-218 -36,-83 -54,-172 -54,-267l0 -456 -191 0 0 -390 191 0 0 -613 390 0 0 613 593 0 0 390 -593 0 0 456c0,41 7,80 23,116 15,35 36,67 63,93 27,27 58,49 95,64 36,16 75,24 116,24l296 0 0 390 -296 0zm1126 -376c16,5 31,8 46,9 16,2 31,3 46,3 38,0 75,-6 110,-16 36,-11 69,-26 100,-45 31,-20 59,-44 83,-72 24,-28 44,-60 60,-94l286 288c-36,52 -78,98 -125,139 -47,41 -99,76 -154,105 -54,28 -112,50 -173,65 -60,15 -123,23 -187,23 -108,0 -210,-20 -304,-61 -96,-40 -179,-96 -250,-167 -71,-72 -127,-157 -168,-256 -41,-99 -62,-208 -62,-327 0,-121 21,-232 62,-332 41,-100 97,-186 168,-257 71,-70 154,-125 250,-165 94,-39 196,-58 304,-58 64,0 127,8 188,23 61,15 119,37 174,66 55,28 106,63 154,105 48,42 90,88 126,140l-734 884zm201 -807c-18,-7 -36,-11 -54,-13 -17,-2 -36,-2 -55,-2 -53,0 -104,9 -151,29 -47,19 -88,47 -124,84 -34,36 -62,80 -82,131 -20,51 -30,108 -30,172 0,15 1,31 2,49 2,18 4,37 7,56 4,18 7,36 12,53 5,18 12,33 19,46l456 -605zm1120 1183l-391 0 0 -1536 95 0 129 182c63,-57 135,-101 215,-132 80,-31 163,-47 249,-47l346 0 0 390 -346 0c-41,0 -79,8 -116,23 -36,15 -68,36 -95,63 -26,27 -47,59 -63,95 -15,36 -23,75 -23,116l0 846z"/>
 </g>
</svg>
